<?xml version="1.0" encoding="utf-8"?>
<!-- Generator: Adobe Illustrator 16.2.1, SVG Export Plug-In . SVG Version: 6.00 Build 0)  -->
<!DOCTYPE svg PUBLIC "-//W3C//DTD SVG 1.1//EN" "http://www.w3.org/Graphics/SVG/1.1/DTD/svg11.dtd">
<svg version="1.1" id="Layer_1" xmlns="http://www.w3.org/2000/svg" xmlns:xlink="http://www.w3.org/1999/xlink" x="0px" y="0px"
	 width="369.52px" height="223.122px" viewBox="0 0 369.52 223.122" enable-background="new 0 0 369.52 223.122"
	 xml:space="preserve">
<g>
	
		<rect x="134.436" y="105.866" fill="#C6C6C5" stroke="#4F4130" stroke-width="3.5962" stroke-linecap="round" stroke-linejoin="round" stroke-miterlimit="10" width="144.795" height="85.907"/>
	
		<rect x="143.788" y="115.218" fill="#FFFFFF" stroke="#4F4130" stroke-width="3.5962" stroke-linecap="round" stroke-linejoin="round" stroke-miterlimit="10" width="126.089" height="67.202"/>
	
		<rect x="134.436" y="191.773" fill="#FFFFFF" stroke="#4F4130" stroke-width="3.5962" stroke-linecap="round" stroke-linejoin="round" stroke-miterlimit="10" width="144.795" height="18.359"/>
	
		<rect x="189.167" y="210.132" fill="#C6C6C5" stroke="#4F4130" stroke-width="3.5962" stroke-linecap="round" stroke-linejoin="round" stroke-miterlimit="10" width="35.333" height="12.989"/>
	
		<line fill="none" stroke="#4F4130" stroke-width="3.5962" stroke-linecap="round" stroke-linejoin="round" stroke-miterlimit="10" x1="173.319" y1="223.122" x2="240.348" y2="223.122"/>
</g>
<g>
	
		<path fill="#FFFFFF" stroke="#4F4130" stroke-width="3.5962" stroke-linecap="round" stroke-linejoin="round" stroke-miterlimit="10" d="
		M43.617,208.106h63.525c4.89,0,8.854-3.963,8.854-8.854v-84.534c0-4.889-3.964-8.854-8.854-8.854H43.617
		c-4.89,0-8.854,3.965-8.854,8.854v84.534C34.764,204.143,38.728,208.106,43.617,208.106z"/>
	
		<rect x="42.379" y="123.452" fill="#C6C6C5" stroke="#4F4130" stroke-width="3.5962" stroke-linecap="round" stroke-linejoin="round" stroke-miterlimit="10" width="66.001" height="67.068"/>
	
		<circle fill="none" stroke="#4F4130" stroke-width="3.5962" stroke-linecap="round" stroke-linejoin="round" stroke-miterlimit="10" cx="75.38" cy="199.336" r="1.541"/>
	
		<line fill="#FFFFFF" stroke="#4F4130" stroke-width="3.5962" stroke-linecap="round" stroke-linejoin="round" stroke-miterlimit="10" x1="82.149" y1="114.66" x2="68.61" y2="114.66"/>
</g>
<g>
	
		<path fill="#FFFFFF" stroke="#4F4130" stroke-width="3.5962" stroke-linecap="round" stroke-linejoin="round" stroke-miterlimit="10" d="
		M217.894,87.813l0.234,0.059c11.554,2.853,23.627,2.853,35.182,0l0.234-0.059c3.318-0.819,5.65-3.797,5.65-7.215V22.883
		c0-3.291-2.166-6.19-5.32-7.125l-0.234-0.07c-11.697-3.465-24.146-3.465-35.841,0l-0.235,0.07c-3.155,0.935-5.32,3.834-5.32,7.125
		v57.715C212.244,84.016,214.576,86.994,217.894,87.813z"/>
	
		<rect x="219.103" y="22.551" fill="#FDD17A" stroke="#4F4130" stroke-width="3.5962" stroke-linecap="round" stroke-linejoin="round" stroke-miterlimit="10" width="33.233" height="48.633"/>
	
		<path fill="#BDB0A4" stroke="#4F4130" stroke-width="3.5962" stroke-linecap="round" stroke-linejoin="round" stroke-miterlimit="10" d="
		M230.181,76.475h11.077v6.712l-0.055,0.021c-3.535,1.326-7.432,1.326-10.967,0l-0.055-0.021V76.475z"/>
	
		<polygon fill="#BDB0A4" stroke="#4F4130" stroke-width="3.5962" stroke-linecap="round" stroke-linejoin="round" stroke-miterlimit="10" points="
		241.258,76.475 252.336,76.475 252.336,81.628 241.258,83.187 	"/>
	
		<polygon fill="#C6C6C5" stroke="#4F4130" stroke-width="3.5962" stroke-linecap="round" stroke-linejoin="round" stroke-miterlimit="10" points="
		219.103,76.475 230.181,76.475 230.181,83.187 219.103,81.628 	"/>
</g>
<g>
	
		<rect x="278.63" y="25.552" fill="#FDD17A" stroke="#4F4130" stroke-width="3.5962" stroke-linecap="round" stroke-linejoin="round" stroke-miterlimit="10" width="44.25" height="63.414"/>
	
		<rect x="283.825" y="31.342" fill="#FFFFFF" stroke="#4F4130" stroke-width="3.5962" stroke-linecap="round" stroke-linejoin="round" stroke-miterlimit="10" width="33.859" height="45.577"/>
	
		<rect x="299.781" y="81.596" fill="none" stroke="#4F4130" stroke-width="3.5962" stroke-linecap="round" stroke-linejoin="round" stroke-miterlimit="10" width="1.947" height="1.948"/>
</g>
<g>
	
		<path fill="#FFFFFF" stroke="#4F4130" stroke-width="3.5962" stroke-linecap="round" stroke-linejoin="round" stroke-miterlimit="10" d="
		M96.33,90.43h13.895c3.188,0,5.771-2.584,5.771-5.771V57.709c0-3.188-2.584-5.771-5.771-5.771H96.33
		c-3.188,0-5.771,2.584-5.771,5.771v26.949C90.559,87.846,93.143,90.43,96.33,90.43z"/>
	
		<rect x="96.266" y="58.34" fill="#FFFFFF" stroke="#4F4130" stroke-width="3.5962" stroke-linecap="round" stroke-linejoin="round" stroke-miterlimit="10" width="14.023" height="21.187"/>
	
		<circle fill="none" stroke="#4F4130" stroke-width="3.5962" stroke-linecap="round" stroke-linejoin="round" stroke-miterlimit="10" cx="103.277" cy="84.824" r="0.751"/>
</g>
<g>
	
		<path fill="#FFFFFF" stroke="#4F4130" stroke-width="3.5962" stroke-linecap="round" stroke-linejoin="round" stroke-miterlimit="10" d="
		M297.086,128.342v24.726c0,3.503,2.84,6.343,6.344,6.343h53.372c3.503,0,6.343-2.84,6.343-6.343v-24.726
		c0-3.503-2.84-6.343-6.343-6.343H303.43C299.926,122,297.086,124.839,297.086,128.342z"/>
	
		<rect x="309.686" y="127.456" fill="#FFFFFF" stroke="#4F4130" stroke-width="3.5962" stroke-linecap="round" stroke-linejoin="round" stroke-miterlimit="10" width="40.859" height="26.499"/>
	
		<circle fill="none" stroke="#4F4130" stroke-width="3.5962" stroke-linecap="round" stroke-linejoin="round" stroke-miterlimit="10" cx="303.369" cy="140.705" r="1.104"/>
	
		<line fill="#FFFFFF" stroke="#4F4130" stroke-width="3.5962" stroke-linecap="round" stroke-linejoin="round" stroke-miterlimit="10" x1="356.845" y1="145.555" x2="356.845" y2="135.856"/>
</g>
<g>
	
		<path fill="#FFFFFF" stroke="#4F4130" stroke-width="3.5962" stroke-linecap="round" stroke-linejoin="round" stroke-miterlimit="10" d="
		M132.119,88.504v-34.64c0-1.722,1.396-3.118,3.118-3.118h58.194c1.722,0,3.118,1.396,3.118,3.118v34.64
		c0,1.722-1.396,3.117-3.118,3.117h-58.194C133.515,91.622,132.119,90.226,132.119,88.504z"/>
	<circle fill="#4F4130" stroke="#4F4130" stroke-width="0.7992" stroke-miterlimit="10" cx="138.874" cy="71.185" r="3.118"/>
	
		<path fill="#C6C6C5" stroke="#4F4130" stroke-width="3.5962" stroke-linecap="round" stroke-linejoin="round" stroke-miterlimit="10" d="
		M145.239,82.406V59.962c0-2.268,1.838-4.106,4.106-4.106h37.858c2.268,0,4.105,1.839,4.105,4.106v22.443
		c0,2.269-1.838,4.106-4.105,4.106h-37.858C147.077,86.512,145.239,84.674,145.239,82.406z"/>
</g>
<g>
	
		<path fill="#9FBB6A" stroke="#4F4130" stroke-width="3.5962" stroke-linecap="round" stroke-linejoin="round" stroke-miterlimit="10" d="
		M123.651,6.343v24.726c0,3.503,2.84,6.343,6.343,6.343h60.213c3.503,0,6.343-2.84,6.343-6.343V6.343
		c0-3.504-2.84-6.343-6.343-6.343h-60.213C126.491,0,123.651,2.839,123.651,6.343z"/>
	
		<rect x="136.25" y="5.456" fill="#FFFFFF" stroke="#4F4130" stroke-width="3.5962" stroke-linecap="round" stroke-linejoin="round" stroke-miterlimit="10" width="47.699" height="26.499"/>
	
		<circle fill="none" stroke="#4F4130" stroke-width="3.5962" stroke-linecap="round" stroke-linejoin="round" stroke-miterlimit="10" cx="129.934" cy="18.705" r="1.104"/>
	
		<line fill="#FFFFFF" stroke="#4F4130" stroke-width="3.5962" stroke-linecap="round" stroke-linejoin="round" stroke-miterlimit="10" x1="190.25" y1="23.555" x2="190.25" y2="13.855"/>
</g>
<g>
	
		<path fill="#FFFFFF" stroke="#4F4130" stroke-width="3.5962" stroke-linecap="round" stroke-linejoin="round" stroke-miterlimit="10" d="
		M369.52,101.458l-0.16,0.113c-9.416,6.69-22.034,6.69-31.45,0l-0.159-0.113V60.859l0.159-0.112c9.416-6.69,22.034-6.69,31.45,0
		l0.16,0.112V101.458z"/>
	
		<rect x="343.373" y="64.839" fill="#E5A670" stroke="#4F4130" stroke-width="3.5962" stroke-linecap="round" stroke-linejoin="round" stroke-miterlimit="10" width="20.523" height="30.05"/>
	
		<line fill="none" stroke="#4F4130" stroke-width="3.5962" stroke-linecap="round" stroke-linejoin="round" stroke-miterlimit="10" x1="355.082" y1="101.038" x2="352.188" y2="101.038"/>
</g>
<g>
	
		<path fill="#FFFFFF" stroke="#4F4130" stroke-width="3.5962" stroke-linecap="round" stroke-linejoin="round" stroke-miterlimit="10" d="
		M2.197,51.109L2.14,51.343c-2.853,11.555-2.853,23.629,0,35.182l0.058,0.234c0.82,3.318,3.797,5.65,7.215,5.65h57.715
		c3.291,0,6.191-2.164,7.126-5.32l0.069-0.234c3.465-11.695,3.465-24.145,0-35.84l-0.069-0.236c-0.935-3.154-3.835-5.32-7.126-5.32
		H9.412C5.994,45.458,3.018,47.791,2.197,51.109z"/>
	
		<rect x="18.827" y="52.318" fill="#8AB2D2" stroke="#4F4130" stroke-width="3.5962" stroke-linecap="round" stroke-linejoin="round" stroke-miterlimit="10" width="48.633" height="33.232"/>
	
		<path fill="#8AB2D2" stroke="#4F4130" stroke-width="3.5962" stroke-linecap="round" stroke-linejoin="round" stroke-miterlimit="10" d="
		M13.535,63.396v11.078H6.824l-0.021-0.057c-1.326-3.535-1.326-7.432,0-10.967l0.021-0.055H13.535z"/>
	
		<polygon fill="#8AB2D2" stroke="#4F4130" stroke-width="3.5962" stroke-linecap="round" stroke-linejoin="round" stroke-miterlimit="10" points="
		13.535,74.474 13.535,85.55 8.383,85.55 6.824,74.474 	"/>
	
		<polygon fill="#8AB2D2" stroke="#4F4130" stroke-width="3.5962" stroke-linecap="round" stroke-linejoin="round" stroke-miterlimit="10" points="
		13.535,52.318 13.535,63.396 6.824,63.396 8.383,52.318 	"/>
</g>
</svg>
