<?xml version="1.0" encoding="utf-8"?>
<!-- Generator: Adobe Illustrator 16.2.1, SVG Export Plug-In . SVG Version: 6.00 Build 0)  -->
<!DOCTYPE svg PUBLIC "-//W3C//DTD SVG 1.1//EN" "http://www.w3.org/Graphics/SVG/1.1/DTD/svg11.dtd">
<svg version="1.1" id="Layer_1" xmlns="http://www.w3.org/2000/svg" xmlns:xlink="http://www.w3.org/1999/xlink" x="0px" y="0px"
	 width="151.5px" height="183.625px" viewBox="0 0 151.5 183.625" enable-background="new 0 0 151.5 183.625" xml:space="preserve">
<g>
	<g>
		<path fill-rule="evenodd" clip-rule="evenodd" fill="#FFFFFF" d="M5.346,124.403l12.179-12.18
			C0.885,84.215,4.739,50.564,27.383,27.92C40.33,14.972,57.349,7.842,75.305,7.842c12.58,0,25.117,3.526,36.386,10.216
			l12.087-12.086l22.377,22.376l-12.086,12.086c16.644,28.01,12.79,61.664-9.859,84.311c-12.947,12.948-29.988,20.079-47.983,20.079
			c-12.603,0-25.117-3.53-36.32-10.228l-12.184,12.183L5.346,124.403z M60.998,113.503c4.995,1.92,10.105,2.891,15.234,2.891
			c0,0,0.001,0,0.002,0c10.425,0,20.331-4.165,27.895-11.729c11.485-11.484,14.73-27.741,8.836-43.13L60.998,113.503z
			 M75.362,36.269c-10.426,0-20.334,4.166-27.898,11.731c-11.485,11.484-14.731,27.738-8.839,43.125l51.966-51.967
			C85.598,37.24,80.489,36.269,75.362,36.269z"/>
		<path d="M123.777,9.507l18.842,18.84l-11.711,11.711c17.174,27.282,13.764,60.689-8.467,82.919
			c-12.781,12.781-29.316,19.347-46.216,19.347c-12.487,0-25.172-3.584-36.691-10.893l-11.812,11.812L8.881,124.403L20.685,112.6
			C3.515,85.317,6.923,51.915,29.151,29.688C41.935,16.904,58.42,10.343,75.305,10.342c12.478-0.001,25.17,3.579,36.762,10.876
			L123.777,9.507 M37.781,95.504l57.188-57.188c-6.444-3.051-13.107-4.547-19.606-4.547c-10.959,0-21.455,4.251-29.667,12.463
			C32.618,59.311,29.583,78.193,37.781,95.504 M76.232,118.894c10.96,0,21.454-4.251,29.664-12.461
			c13.082-13.081,16.113-31.961,7.912-49.276l-57.188,57.188C63.067,117.397,69.732,118.894,76.232,118.894 M123.777,2.437
			l-3.535,3.535l-8.963,8.962c-11.213-6.286-23.568-9.592-35.969-9.592c-18.631,0.001-36.277,7.392-49.695,20.81
			C2.596,49.171-1.699,83.148,14.4,111.813l-9.055,9.055l-3.536,3.535l3.536,3.535l18.841,18.841l3.536,3.536l3.536-3.536
			l9.056-9.056c11.153,6.292,23.488,9.601,35.912,9.601c18.663,0,36.332-7.391,49.751-20.812
			c23.024-23.022,27.32-57.003,11.217-85.668l8.961-8.961l3.536-3.536l-3.536-3.536l-18.842-18.84L123.777,2.437L123.777,2.437z
			 M39.724,86.49c-3.712-13.3-0.329-26.885,9.508-36.722c7.092-7.093,16.372-10.999,26.131-10.999c3.551,0,7.097,0.497,10.601,1.482
			L39.724,86.49L39.724,86.49z M65.626,112.41l46.24-46.24c3.716,13.303,0.333,26.89-9.505,36.727
			c-7.092,7.092-16.371,10.997-26.129,10.997C72.68,113.894,69.132,113.396,65.626,112.41L65.626,112.41z"/>
	</g>
	<g>
		
			<rect x="-7.994" y="60.553" transform="matrix(-0.7071 0.7071 -0.7071 -0.7071 183.319 76.8178)" fill-rule="evenodd" clip-rule="evenodd" fill="#FFFFFF" width="167.488" height="31.645"/>
		<path d="M123.777,9.507l18.842,18.84L27.722,143.244L8.881,124.403L123.777,9.507 M123.777,2.437l-3.535,3.535L5.346,120.868
			l-3.535,3.535l3.535,3.535l18.841,18.841l3.536,3.536l3.536-3.536L146.154,31.883l3.536-3.536l-3.536-3.536l-18.842-18.84
			L123.777,2.437L123.777,2.437z"/>
	</g>
</g>
<g>
	<polygon fill-rule="evenodd" clip-rule="evenodd" fill="#FFFFFF" points="55.914,160 95.465,160 75.401,180.063 	"/>
	<path d="M89.429,162.5l-14.002,14.002l-13.6-14.002H89.429 M101.5,157.5H50l25.375,26.125L101.5,157.5L101.5,157.5z"/>
</g>
<g>
	<path fill-rule="evenodd" clip-rule="evenodd" fill="#FFFFFF" d="M112.066,21.218l11.711-11.71l18.842,18.84l-11.711,11.711
		c17.174,27.282,13.764,60.689-8.467,82.919c-22.225,22.226-55.799,25.654-82.907,8.454l-11.812,11.812L8.881,124.403L20.685,112.6
		C3.515,85.317,6.923,51.915,29.151,29.688C51.38,7.458,84.787,4.046,112.066,21.218L112.066,21.218z M56.621,114.345
		c17.317,8.201,36.198,5.166,49.276-7.912c13.082-13.081,16.113-31.961,7.912-49.276L56.621,114.345L56.621,114.345z M94.969,38.316
		c-17.311-8.197-36.192-5.166-49.273,7.916c-13.078,13.078-16.112,31.961-7.915,49.271L94.969,38.316L94.969,38.316z"/>
	<polygon fill-rule="evenodd" clip-rule="evenodd" fill="#FFFFFF" points="123.777,9.507 142.619,28.348 27.722,143.244 
		8.881,124.403 123.777,9.507 	"/>
</g>
</svg>
