<?xml version="1.0" encoding="utf-8"?>
<!-- Generator: Adobe Illustrator 16.2.1, SVG Export Plug-In . SVG Version: 6.00 Build 0)  -->
<!DOCTYPE svg PUBLIC "-//W3C//DTD SVG 1.1//EN" "http://www.w3.org/Graphics/SVG/1.1/DTD/svg11.dtd">
<svg version="1.1" id="Layer_1" xmlns="http://www.w3.org/2000/svg" xmlns:xlink="http://www.w3.org/1999/xlink" x="0px" y="0px"
	 width="162.488px" height="131.932px" viewBox="0 0 162.488 131.932" enable-background="new 0 0 162.488 131.932"
	 xml:space="preserve">
<g>
	<path fill-rule="evenodd" clip-rule="evenodd" fill="#FFFFFF" d="M145.926,52.641h16.562v26.645h-16.562
		c-7.147,31.436-33.182,52.646-64.619,52.646c-31.432,0-57.597-21.316-64.603-52.646H0V52.641h16.693
		C23.843,21.208,49.873,0,81.307,0C112.745,0,138.779,21.208,145.926,52.641L145.926,52.641z M40.87,79.286
		c6.444,18.043,21.942,29.248,40.438,29.248c18.5,0,33.994-11.205,40.438-29.248H40.87L40.87,79.286z M121.746,52.641
		c-6.444-18.037-21.938-29.244-40.438-29.244c-18.495,0-33.993,11.207-40.438,29.244H121.746L121.746,52.641z"/>
	<polygon fill-rule="evenodd" clip-rule="evenodd" fill="#FFFFFF" points="162.488,52.641 162.488,79.286 0,79.286 0,52.641 
		162.488,52.641 	"/>
</g>
</svg>
