<?xml version="1.0" encoding="utf-8"?>
<!-- Generator: Adobe Illustrator 16.2.1, SVG Export Plug-In . SVG Version: 6.00 Build 0)  -->
<!DOCTYPE svg PUBLIC "-//W3C//DTD SVG 1.1//EN" "http://www.w3.org/Graphics/SVG/1.1/DTD/svg11.dtd">
<svg version="1.1" id="Layer_1" xmlns:sketch="http://www.bohemiancoding.com/sketch/ns"
	 xmlns="http://www.w3.org/2000/svg" xmlns:xlink="http://www.w3.org/1999/xlink" x="0px" y="0px" width="24px" height="24px"
	 viewBox="0 0 24 24" enable-background="new 0 0 24 24" xml:space="preserve">
<title></title>
<desc></desc>
<g id="miu">
	<g id="Artboard-1" transform="translate(-359.000000, -479.000000)">
		<g id="slice" transform="translate(215.000000, 119.000000)">
		</g>
		<path id="editor-list-view-hambuger-menu-outline-stroke" fill="#FFFFFF" d="M360.577,485c-0.319,0-0.577,0.222-0.577,0.5
			c0,0.276,0.262,0.5,0.577,0.5h20.846c0.319,0,0.577-0.222,0.577-0.5c0-0.276-0.262-0.5-0.577-0.5H360.577L360.577,485z
			 M360.577,490c-0.319,0-0.577,0.222-0.577,0.5c0,0.276,0.262,0.5,0.577,0.5h20.846c0.319,0,0.577-0.222,0.577-0.5
			c0-0.276-0.262-0.5-0.577-0.5H360.577L360.577,490z M360.577,495c-0.319,0-0.577,0.222-0.577,0.5c0,0.276,0.262,0.5,0.577,0.5
			h20.846c0.319,0,0.577-0.222,0.577-0.5c0-0.276-0.262-0.5-0.577-0.5H360.577L360.577,495z"/>
	</g>
</g>
</svg>
